<?xml version="1.0" encoding="UTF-8"?>
<svg id="Layer_1" xmlns="http://www.w3.org/2000/svg" version="1.1" viewBox="0 0 720 85.66">
  <!-- Generator: Adobe Illustrator 30.2.1, SVG Export Plug-In . SVG Version: 2.1.1 Build 1)  -->
  <defs>
    <style>
      .st0 {
        fill: #fff;
      }
    </style>
  </defs>
  <path class="st0" d="M1.84,1.42h18.22v32.77h33.6V1.42h18.22v82.81h-18.22v-33.24H20.06v33.24H1.84V1.42Z"/>
  <path class="st0" d="M104.43,1.42h18.22v82.81h-18.22V1.42Z"/>
  <path class="st0" d="M151.53,43.06v-.24c0-23.54,18.34-42.83,43.42-42.83,14.91,0,23.9,4.02,32.53,11.35l-11.48,13.84c-6.39-5.33-12.06-8.4-21.65-8.4-13.25,0-23.78,11.71-23.78,25.79v.24c0,15.14,10.41,26.27,25.08,26.27,6.62,0,12.54-1.66,17.15-4.97v-11.83h-18.34v-15.73h35.96v35.96c-8.52,7.21-20.23,13.13-35.37,13.13-25.79,0-43.54-18.11-43.54-42.59Z"/>
  <path class="st0" d="M259.81,1.42h18.22v32.77h33.6V1.42h18.22v82.81h-18.22v-33.24h-33.6v33.24h-18.22V1.42Z"/>
  <path class="st0" d="M431.2,18.22h-25.2V1.42h68.62v16.79h-25.2v66.02h-18.22V18.22Z"/>
  <path class="st0" d="M501.26,1.42h18.22v82.81h-18.22V1.42Z"/>
  <path class="st0" d="M552.02,1.42h32.3c26.02,0,44.01,17.86,44.01,41.17v.24c0,23.31-17.99,41.41-44.01,41.41h-32.3V1.42ZM570.24,17.86v49.92h14.08c14.91,0,24.96-10.06,24.96-24.72v-.24c0-14.67-10.06-24.96-24.96-24.96h-14.08Z"/>
  <path class="st0" d="M656.39,1.42h62.47v16.21h-44.36v16.8h39.04v16.21h-39.04v17.39h44.96v16.21h-63.06V1.42Z"/>
</svg>