<?xml version="1.0" encoding="UTF-8"?>
<svg id="Layer_1" xmlns="http://www.w3.org/2000/svg" version="1.1" viewBox="0 0 173.21 213.65">
  <!-- Generator: Adobe Illustrator 30.2.1, SVG Export Plug-In . SVG Version: 2.1.1 Build 1)  -->
  <defs>
    <style>
      .st0 {
        fill: none;
      }

      .st1 {
        fill: #015ef9;
      }
    </style>
  </defs>
  <polygon class="st1" points="170.53 2.02 170.53 68.71 100.85 68.71 105.93 32.4 85.04 32.4 79.9 68.71 46.92 68.71 51.99 32.4 30.91 32.4 25.84 68.71 2.68 68.71 2.68 2.02 170.53 2.02"/>
  <path class="st1" d="M170.53,89.37v42.37c0,15.55-7.81,29.99-20.82,38.51l-63.11,41.38-63.11-41.38c-12.94-8.52-20.82-22.96-20.82-38.51v-42.37h20.71l-5.81,41.27h21.07l5.95-41.27h32.85l-5.81,41.27h20.95l5.81-41.27h26.74l-10.95,77.57h21.08l10.82-77.57h24.44Z"/>
  <path class="st0" d="M77.49,89.05h-32.85"/>
</svg>